<svg xmlns="http://www.w3.org/2000/svg" version="1.1" xmlns:xlink="http://www.w3.org/1999/xlink" xmlns:svgjs="http://svgjs.dev/svgjs" viewBox="0 0 800 800"><circle r="9.5" cx="371" cy="694" fill="hsl(285, 75%, 70%)" opacity="0.98"></circle><circle r="9.5" cx="677" cy="529" fill="hsl(278, 75%, 70%)" opacity="0.88"></circle><circle r="6" cx="588" cy="102" fill="hsl(207, 75%, 70%)" opacity="0.18"></circle><circle r="14" cx="234" cy="698" fill="hsl(255, 75%, 70%)" opacity="0.37"></circle><circle r="7.5" cx="571" cy="76" fill="hsl(143, 75%, 70%)" opacity="0.97"></circle><circle r="12.5" cx="252" cy="650" fill="hsl(273, 75%, 70%)" opacity="0.97"></circle><circle r="8" cx="768" cy="381" fill="hsl(175, 75%, 70%)" opacity="0.99"></circle><circle r="12" cx="409" cy="776" fill="hsl(268, 75%, 70%)" opacity="0.13"></circle><circle r="8" cx="353" cy="743" fill="hsl(288, 75%, 70%)" opacity="0.48"></circle><circle r="12.5" cx="550" cy="382" fill="hsl(262, 75%, 70%)" opacity="0.66"></circle><circle r="9" cx="594" cy="162" fill="hsl(265, 75%, 70%)" opacity="0.45"></circle><circle r="11" cx="655" cy="590" fill="hsl(291, 75%, 70%)" opacity="0.10"></circle><circle r="5.5" cx="650" cy="78" fill="hsl(214, 75%, 70%)" opacity="0.34"></circle><circle r="10" cx="711" cy="21" fill="hsl(167, 75%, 70%)" opacity="0.35"></circle><circle r="8" cx="713" cy="318" fill="hsl(242, 75%, 70%)" opacity="0.65"></circle><circle r="10" cx="762" cy="186" fill="hsl(192, 75%, 70%)" opacity="0.68"></circle><circle r="12.5" cx="20" cy="301" fill="hsl(185, 75%, 70%)" opacity="0.21"></circle><circle r="10" cx="496" cy="389" fill="hsl(244, 75%, 70%)" opacity="0.82"></circle><circle r="11.5" cx="514" cy="358" fill="hsl(251, 75%, 70%)" opacity="0.98"></circle><circle r="9" cx="117" cy="150" fill="hsl(133, 75%, 70%)" opacity="0.71"></circle><circle r="12.5" cx="374" cy="482" fill="hsl(285, 75%, 70%)" opacity="0.68"></circle><circle r="5" cx="731" cy="109" fill="hsl(214, 75%, 70%)" opacity="0.95"></circle><circle r="12" cx="620" cy="750" fill="hsl(294, 75%, 70%)" opacity="0.49"></circle><circle r="9" cx="732" cy="451" fill="hsl(226, 75%, 70%)" opacity="0.97"></circle><circle r="9.5" cx="548" cy="251" fill="hsl(262, 75%, 70%)" opacity="0.20"></circle><circle r="9.5" cx="24" cy="417" fill="hsl(185, 75%, 70%)" opacity="0.92"></circle><circle r="11" cx="184" cy="538" fill="hsl(212, 75%, 70%)" opacity="0.28"></circle><circle r="11" cx="611" cy="303" fill="hsl(292, 75%, 70%)" opacity="0.76"></circle><circle r="13.5" cx="378" cy="302" fill="hsl(280, 75%, 70%)" opacity="0.23"></circle><circle r="13.5" cx="636" cy="635" fill="hsl(296, 75%, 70%)" opacity="0.82"></circle><circle r="14.5" cx="555" cy="491" fill="hsl(268, 75%, 70%)" opacity="0.51"></circle><circle r="14" cx="242" cy="559" fill="hsl(265, 75%, 70%)" opacity="0.87"></circle><circle r="6" cx="440" cy="148" fill="hsl(204, 75%, 70%)" opacity="0.22"></circle><circle r="7" cx="45" cy="159" fill="hsl(157, 75%, 70%)" opacity="0.66"></circle><circle r="13.5" cx="225" cy="157" fill="hsl(221, 75%, 70%)" opacity="0.32"></circle><circle r="13.5" cx="141" cy="650" fill="hsl(183, 75%, 70%)" opacity="0.64"></circle><circle r="18.5" cx="541" cy="573" fill="hsl(262, 75%, 70%)" opacity="0.74"></circle><circle r="8.5" cx="456" cy="342" fill="hsl(247, 75%, 70%)" opacity="0.27"></circle><circle r="11.5" cx="475" cy="294" fill="hsl(243, 75%, 70%)" opacity="0.31"></circle><circle r="11" cx="89" cy="354" fill="hsl(164, 75%, 70%)" opacity="0.76"></circle><circle r="7.5" cx="737" cy="134" fill="hsl(220, 75%, 70%)" opacity="0.10"></circle><circle r="16.5" cx="283" cy="706" fill="hsl(286, 75%, 70%)" opacity="0.73"></circle><circle r="12.5" cx="644" cy="133" fill="hsl(266, 75%, 70%)" opacity="0.10"></circle><circle r="10" cx="557" cy="122" fill="hsl(190, 75%, 70%)" opacity="0.20"></circle><circle r="8" cx="45" cy="67" fill="hsl(134, 75%, 70%)" opacity="0.67"></circle><circle r="6.5" cx="24" cy="671" fill="hsl(185, 75%, 70%)" opacity="0.83"></circle><circle r="8" cx="121" cy="27" fill="hsl(69, 75%, 70%)" opacity="0.38"></circle><circle r="4.5" cx="601" cy="85" fill="hsl(183, 75%, 70%)" opacity="0.37"></circle><circle r="9" cx="681" cy="51" fill="hsl(203, 75%, 70%)" opacity="0.61"></circle><circle r="13.5" cx="654" cy="722" fill="hsl(291, 75%, 70%)" opacity="0.65"></circle><circle r="5.5" cx="98" cy="125" fill="hsl(115, 75%, 70%)" opacity="0.26"></circle><circle r="14.5" cx="591" cy="597" fill="hsl(287, 75%, 70%)" opacity="0.48"></circle><circle r="14.5" cx="637" cy="180" fill="hsl(293, 75%, 70%)" opacity="0.17"></circle><circle r="8" cx="43" cy="702" fill="hsl(173, 75%, 70%)" opacity="0.51"></circle><circle r="12" cx="295" cy="324" fill="hsl(290, 75%, 70%)" opacity="0.24"></circle><circle r="6.5" cx="151" cy="587" fill="hsl(192, 75%, 70%)" opacity="0.78"></circle><circle r="8.5" cx="744" cy="79" fill="hsl(196, 75%, 70%)" opacity="0.32"></circle><circle r="12" cx="347" cy="202" fill="hsl(291, 75%, 70%)" opacity="0.27"></circle><circle r="5.5" cx="8" cy="654" fill="hsl(191, 75%, 70%)" opacity="0.94"></circle><circle r="11.5" cx="589" cy="352" fill="hsl(287, 75%, 70%)" opacity="0.28"></circle><circle r="9.5" cx="165" cy="399" fill="hsl(201, 75%, 70%)" opacity="0.29"></circle><circle r="7" cx="419" cy="156" fill="hsl(233, 75%, 70%)" opacity="0.52"></circle><circle r="14" cx="216" cy="504" fill="hsl(245, 75%, 70%)" opacity="0.46"></circle><circle r="15" cx="441" cy="512" fill="hsl(251, 75%, 70%)" opacity="0.85"></circle><circle r="10.5" cx="747" cy="669" fill="hsl(210, 75%, 70%)" opacity="0.57"></circle><circle r="6" cx="12" cy="82" fill="hsl(180, 75%, 70%)" opacity="0.28"></circle><circle r="11.5" cx="719" cy="162" fill="hsl(238, 75%, 70%)" opacity="0.97"></circle><circle r="10" cx="25" cy="626" fill="hsl(185, 75%, 70%)" opacity="0.67"></circle><circle r="7.5" cx="784" cy="80" fill="hsl(160, 75%, 70%)" opacity="0.40"></circle><circle r="7" cx="735" cy="423" fill="hsl(226, 75%, 70%)" opacity="0.41"></circle><circle r="9.5" cx="486" cy="207" fill="hsl(243, 75%, 70%)" opacity="0.13"></circle><circle r="9.5" cx="748" cy="528" fill="hsl(210, 75%, 70%)" opacity="0.44"></circle><circle r="11.5" cx="484" cy="687" fill="hsl(243, 75%, 70%)" opacity="0.32"></circle><circle r="10.5" cx="222" cy="67" fill="hsl(139, 75%, 70%)" opacity="0.36"></circle><circle r="7.5" cx="548" cy="649" fill="hsl(262, 75%, 70%)" opacity="0.34"></circle><circle r="12.5" cx="304" cy="666" fill="hsl(293, 75%, 70%)" opacity="0.43"></circle><circle r="8.5" cx="518" cy="27" fill="hsl(42, 75%, 70%)" opacity="0.94"></circle><circle r="10" cx="497" cy="783" fill="hsl(244, 75%, 70%)" opacity="0.83"></circle><circle r="11.5" cx="44" cy="357" fill="hsl(173, 75%, 70%)" opacity="0.73"></circle><circle r="8" cx="782" cy="423" fill="hsl(157, 75%, 70%)" opacity="0.10"></circle><circle r="8" cx="613" cy="143" fill="hsl(268, 75%, 70%)" opacity="1.00"></circle><circle r="11" cx="160" cy="505" fill="hsl(192, 75%, 70%)" opacity="0.71"></circle><circle r="11" cx="359" cy="268" fill="hsl(288, 75%, 70%)" opacity="0.52"></circle><circle r="10.5" cx="726" cy="287" fill="hsl(226, 75%, 70%)" opacity="0.11"></circle><circle r="12.5" cx="218" cy="290" fill="hsl(245, 75%, 70%)" opacity="0.63"></circle><circle r="13" cx="625" cy="348" fill="hsl(294, 75%, 70%)" opacity="0.12"></circle><circle r="12" cx="529" cy="219" fill="hsl(256, 75%, 70%)" opacity="0.31"></circle><circle r="11.5" cx="391" cy="176" fill="hsl(268, 75%, 70%)" opacity="0.82"></circle><circle r="11.5" cx="66" cy="304" fill="hsl(166, 75%, 70%)" opacity="0.78"></circle><circle r="8.5" cx="623" cy="101" fill="hsl(228, 75%, 70%)" opacity="0.97"></circle><circle r="6.5" cx="786" cy="160" fill="hsl(159, 75%, 70%)" opacity="0.73"></circle><circle r="6.5" cx="15" cy="50" fill="hsl(163, 75%, 70%)" opacity="0.13"></circle><circle r="12.5" cx="359" cy="393" fill="hsl(288, 75%, 70%)" opacity="0.71"></circle><circle r="9" cx="263" cy="346" fill="hsl(280, 75%, 70%)" opacity="0.13"></circle><circle r="11" cx="29" cy="581" fill="hsl(179, 75%, 70%)" opacity="0.38"></circle><circle r="16" cx="666" cy="305" fill="hsl(286, 75%, 70%)" opacity="0.72"></circle><circle r="13" cx="536" cy="159" fill="hsl(224, 75%, 70%)" opacity="0.65"></circle><circle r="8.5" cx="503" cy="180" fill="hsl(238, 75%, 70%)" opacity="0.34"></circle><circle r="6.5" cx="786" cy="641" fill="hsl(157, 75%, 70%)" opacity="0.28"></circle><circle r="12" cx="32" cy="497" fill="hsl(179, 75%, 70%)" opacity="0.31"></circle><circle r="14" cx="764" cy="31" fill="hsl(149, 75%, 70%)" opacity="0.70"></circle><circle r="13.5" cx="61" cy="453" fill="hsl(169, 75%, 70%)" opacity="0.43"></circle><circle r="13.5" cx="516" cy="512" fill="hsl(251, 75%, 70%)" opacity="0.94"></circle><circle r="10.5" cx="366" cy="143" fill="hsl(250, 75%, 70%)" opacity="0.55"></circle><circle r="9" cx="705" cy="126" fill="hsl(244, 75%, 70%)" opacity="0.80"></circle><circle r="13" cx="491" cy="607" fill="hsl(244, 75%, 70%)" opacity="0.64"></circle><circle r="12.5" cx="258" cy="767" fill="hsl(273, 75%, 70%)" opacity="0.97"></circle><circle r="11.5" cx="512" cy="310" fill="hsl(247, 75%, 70%)" opacity="0.58"></circle><circle r="14.5" cx="614" cy="227" fill="hsl(294, 75%, 70%)" opacity="0.82"></circle><circle r="7" cx="163" cy="565" fill="hsl(201, 75%, 70%)" opacity="0.67"></circle><circle r="9.5" cx="195" cy="419" fill="hsl(223, 75%, 70%)" opacity="0.43"></circle><circle r="14" cx="411" cy="710" fill="hsl(268, 75%, 70%)" opacity="0.69"></circle><circle r="10.5" cx="262" cy="491" fill="hsl(273, 75%, 70%)" opacity="0.49"></circle><circle r="12" cx="600" cy="782" fill="hsl(292, 75%, 70%)" opacity="0.49"></circle><circle r="7.5" cx="73" cy="101" fill="hsl(121, 75%, 70%)" opacity="0.99"></circle><circle r="11.5" cx="450" cy="622" fill="hsl(251, 75%, 70%)" opacity="0.93"></circle><circle r="9" cx="303" cy="143" fill="hsl(266, 75%, 70%)" opacity="0.57"></circle><circle r="7.5" cx="354" cy="768" fill="hsl(288, 75%, 70%)" opacity="0.94"></circle><circle r="14" cx="231" cy="239" fill="hsl(255, 75%, 70%)" opacity="0.33"></circle><circle r="10.5" cx="626" cy="275" fill="hsl(296, 75%, 70%)" opacity="0.93"></circle><circle r="10" cx="228" cy="349" fill="hsl(255, 75%, 70%)" opacity="0.90"></circle><circle r="11.5" cx="745" cy="232" fill="hsl(210, 75%, 70%)" opacity="0.17"></circle><circle r="13" cx="105" cy="518" fill="hsl(166, 75%, 70%)" opacity="0.77"></circle><circle r="8.5" cx="535" cy="681" fill="hsl(256, 75%, 70%)" opacity="0.58"></circle><circle r="19.5" cx="651" cy="441" fill="hsl(291, 75%, 70%)" opacity="0.68"></circle><circle r="6.5" cx="621" cy="17" fill="hsl(111, 75%, 70%)" opacity="0.43"></circle><circle r="7" cx="764" cy="555" fill="hsl(175, 75%, 70%)" opacity="0.42"></circle><circle r="9" cx="102" cy="614" fill="hsl(166, 75%, 70%)" opacity="0.16"></circle><circle r="13" cx="539" cy="717" fill="hsl(262, 75%, 70%)" opacity="0.50"></circle><circle r="8.5" cx="486" cy="339" fill="hsl(243, 75%, 70%)" opacity="0.75"></circle><circle r="13" cx="137" cy="461" fill="hsl(176, 75%, 70%)" opacity="0.51"></circle><circle r="13.5" cx="550" cy="333" fill="hsl(268, 75%, 70%)" opacity="0.51"></circle><circle r="6" cx="745" cy="401" fill="hsl(210, 75%, 70%)" opacity="0.40"></circle><circle r="8.5" cx="207" cy="675" fill="hsl(234, 75%, 70%)" opacity="0.59"></circle><circle r="13.5" cx="694" cy="253" fill="hsl(268, 75%, 70%)" opacity="0.99"></circle><circle r="8" cx="110" cy="283" fill="hsl(166, 75%, 70%)" opacity="0.33"></circle><circle r="4.5" cx="790" cy="572" fill="hsl(141, 75%, 70%)" opacity="0.83"></circle><circle r="13" cx="224" cy="613" fill="hsl(245, 75%, 70%)" opacity="0.69"></circle><circle r="6" cx="595" cy="125" fill="hsl(239, 75%, 70%)" opacity="0.87"></circle><circle r="11" cx="302" cy="79" fill="hsl(205, 75%, 70%)" opacity="0.60"></circle><circle r="10" cx="89" cy="210" fill="hsl(164, 75%, 70%)" opacity="0.38"></circle><circle r="9" cx="111" cy="83" fill="hsl(90, 75%, 70%)" opacity="0.85"></circle><circle r="10" cx="506" cy="108" fill="hsl(139, 75%, 70%)" opacity="0.56"></circle><circle r="14.5" cx="439" cy="201" fill="hsl(251, 75%, 70%)" opacity="0.75"></circle><circle r="10" cx="228" cy="749" fill="hsl(255, 75%, 70%)" opacity="0.25"></circle><circle r="9" cx="453" cy="581" fill="hsl(247, 75%, 70%)" opacity="1.00"></circle><circle r="9" cx="437" cy="552" fill="hsl(256, 75%, 70%)" opacity="0.10"></circle><circle r="14" cx="272" cy="223" fill="hsl(280, 75%, 70%)" opacity="0.61"></circle><circle r="8.5" cx="19" cy="776" fill="hsl(185, 75%, 70%)" opacity="0.96"></circle><circle r="7.5" cx="665" cy="16" fill="hsl(157, 75%, 70%)" opacity="0.28"></circle><circle r="6.5" cx="140" cy="787" fill="hsl(183, 75%, 70%)" opacity="0.26"></circle><circle r="6.5" cx="605" cy="62" fill="hsl(147, 75%, 70%)" opacity="0.78"></circle><circle r="12" cx="286" cy="633" fill="hsl(286, 75%, 70%)" opacity="0.79"></circle><circle r="11" cx="695" cy="349" fill="hsl(268, 75%, 70%)" opacity="0.42"></circle><circle r="10.5" cx="513" cy="423" fill="hsl(251, 75%, 70%)" opacity="0.86"></circle><circle r="9" cx="64" cy="670" fill="hsl(166, 75%, 70%)" opacity="0.79"></circle><circle r="12.5" cx="266" cy="179" fill="hsl(277, 75%, 70%)" opacity="0.25"></circle><circle r="11.5" cx="193" cy="763" fill="hsl(223, 75%, 70%)" opacity="0.84"></circle><circle r="11" cx="293" cy="464" fill="hsl(290, 75%, 70%)" opacity="0.64"></circle><circle r="5" cx="636" cy="64" fill="hsl(189, 75%, 70%)" opacity="0.51"></circle><circle r="7" cx="126" cy="588" fill="hsl(176, 75%, 70%)" opacity="0.37"></circle><circle r="10" cx="199" cy="324" fill="hsl(223, 75%, 70%)" opacity="0.59"></circle><circle r="6.5" cx="117" cy="245" fill="hsl(170, 75%, 70%)" opacity="0.58"></circle><circle r="14.5" cx="466" cy="470" fill="hsl(244, 75%, 70%)" opacity="0.66"></circle><circle r="4.5" cx="430" cy="90" fill="hsl(141, 75%, 70%)" opacity="0.59"></circle><circle r="13" cx="142" cy="746" fill="hsl(183, 75%, 70%)" opacity="0.22"></circle><circle r="4" cx="431" cy="69" fill="hsl(111, 75%, 70%)" opacity="0.30"></circle><circle r="8" cx="82" cy="43" fill="hsl(92, 75%, 70%)" opacity="0.40"></circle><circle r="12" cx="473" cy="422" fill="hsl(244, 75%, 70%)" opacity="0.81"></circle><circle r="10" cx="684" cy="633" fill="hsl(278, 75%, 70%)" opacity="0.27"></circle><circle r="9" cx="149" cy="242" fill="hsl(183, 75%, 70%)" opacity="0.59"></circle><circle r="8.5" cx="694" cy="560" fill="hsl(268, 75%, 70%)" opacity="0.69"></circle><circle r="14" cx="478" cy="245" fill="hsl(243, 75%, 70%)" opacity="0.14"></circle><circle r="12.5" cx="341" cy="111" fill="hsl(221, 75%, 70%)" opacity="0.19"></circle><circle r="13" cx="188" cy="223" fill="hsl(223, 75%, 70%)" opacity="0.32"></circle><circle r="15.5" cx="103" cy="695" fill="hsl(166, 75%, 70%)" opacity="0.15"></circle><circle r="12" cx="418" cy="339" fill="hsl(262, 75%, 70%)" opacity="0.42"></circle><circle r="13" cx="437" cy="405" fill="hsl(256, 75%, 70%)" opacity="0.80"></circle><circle r="10.5" cx="203" cy="376" fill="hsl(234, 75%, 70%)" opacity="0.11"></circle><circle r="16.5" cx="409" cy="453" fill="hsl(268, 75%, 70%)" opacity="0.54"></circle><circle r="12" cx="99" cy="414" fill="hsl(164, 75%, 70%)" opacity="0.98"></circle><circle r="9.5" cx="735" cy="602" fill="hsl(226, 75%, 70%)" opacity="0.99"></circle><circle r="7.5" cx="271" cy="137" fill="hsl(240, 75%, 70%)" opacity="0.29"></circle><circle r="10.5" cx="448" cy="782" fill="hsl(251, 75%, 70%)" opacity="0.44"></circle><circle r="13.5" cx="400" cy="614" fill="hsl(268, 75%, 70%)" opacity="0.35"></circle><circle r="14" cx="342" cy="328" fill="hsl(291, 75%, 70%)" opacity="0.98"></circle><circle r="13.5" cx="581" cy="642" fill="hsl(281, 75%, 70%)" opacity="0.87"></circle><circle r="10" cx="682" cy="671" fill="hsl(278, 75%, 70%)" opacity="0.27"></circle><circle r="9.5" cx="577" cy="27" fill="hsl(85, 75%, 70%)" opacity="0.12"></circle><circle r="8" cx="478" cy="60" fill="hsl(67, 75%, 70%)" opacity="0.82"></circle><circle r="12" cx="327" cy="166" fill="hsl(284, 75%, 70%)" opacity="0.57"></circle><circle r="13" cx="759" cy="729" fill="hsl(193, 75%, 70%)" opacity="0.58"></circle><circle r="14.5" cx="490" cy="554" fill="hsl(244, 75%, 70%)" opacity="0.61"></circle><circle r="5.5" cx="68" cy="140" fill="hsl(138, 75%, 70%)" opacity="0.41"></circle><circle r="11.5" cx="403" cy="385" fill="hsl(268, 75%, 70%)" opacity="0.70"></circle><circle r="7" cx="775" cy="125" fill="hsl(176, 75%, 70%)" opacity="0.75"></circle><circle r="10.5" cx="257" cy="315" fill="hsl(273, 75%, 70%)" opacity="0.67"></circle><circle r="12.5" cx="575" cy="189" fill="hsl(275, 75%, 70%)" opacity="0.28"></circle><circle r="5.5" cx="758" cy="104" fill="hsl(189, 75%, 70%)" opacity="0.75"></circle><circle r="5.5" cx="417" cy="14" fill="hsl(94, 75%, 70%)" opacity="0.86"></circle><circle r="12.5" cx="282" cy="549" fill="hsl(286, 75%, 70%)" opacity="0.75"></circle><circle r="9" cx="21" cy="542" fill="hsl(185, 75%, 70%)" opacity="0.55"></circle><circle r="7" cx="363" cy="789" fill="hsl(285, 75%, 70%)" opacity="0.99"></circle><circle r="13" cx="487" cy="742" fill="hsl(243, 75%, 70%)" opacity="0.84"></circle><circle r="11.5" cx="199" cy="457" fill="hsl(223, 75%, 70%)" opacity="0.13"></circle><circle r="9.5" cx="82" cy="254" fill="hsl(164, 75%, 70%)" opacity="0.88"></circle><circle r="8.5" cx="244" cy="466" fill="hsl(265, 75%, 70%)" opacity="0.21"></circle><circle r="12" cx="265" cy="25" fill="hsl(168, 75%, 70%)" opacity="0.93"></circle><circle r="15" cx="644" cy="680" fill="hsl(295, 75%, 70%)" opacity="0.30"></circle><circle r="12.5" cx="90" cy="769" fill="hsl(164, 75%, 70%)" opacity="0.24"></circle><circle r="13.5" cx="658" cy="217" fill="hsl(291, 75%, 70%)" opacity="0.16"></circle><circle r="10" cx="779" cy="334" fill="hsl(157, 75%, 70%)" opacity="0.79"></circle><circle r="14.5" cx="274" cy="274" fill="hsl(280, 75%, 70%)" opacity="0.48"></circle><circle r="9" cx="466" cy="370" fill="hsl(244, 75%, 70%)" opacity="0.23"></circle><circle r="14.5" cx="330" cy="463" fill="hsl(293, 75%, 70%)" opacity="0.82"></circle><circle r="8.5" cx="465" cy="170" fill="hsl(225, 75%, 70%)" opacity="0.37"></circle><circle r="11.5" cx="131" cy="377" fill="hsl(176, 75%, 70%)" opacity="0.60"></circle><circle r="16" cx="697" cy="739" fill="hsl(268, 75%, 70%)" opacity="0.62"></circle><circle r="6" cx="639" cy="41" fill="hsl(168, 75%, 70%)" opacity="0.86"></circle><circle r="11" cx="203" cy="574" fill="hsl(234, 75%, 70%)" opacity="0.92"></circle><circle r="5.5" cx="12" cy="734" fill="hsl(191, 75%, 70%)" opacity="0.47"></circle><circle r="13" cx="389" cy="217" fill="hsl(274, 75%, 70%)" opacity="0.38"></circle><circle r="19" cx="595" cy="702" fill="hsl(287, 75%, 70%)" opacity="0.32"></circle><circle r="10" cx="723" cy="484" fill="hsl(242, 75%, 70%)" opacity="0.42"></circle><circle r="11.5" cx="438" cy="308" fill="hsl(251, 75%, 70%)" opacity="0.74"></circle><circle r="11.5" cx="752" cy="778" fill="hsl(193, 75%, 70%)" opacity="0.28"></circle><circle r="11.5" cx="76" cy="561" fill="hsl(164, 75%, 70%)" opacity="0.79"></circle><circle r="7.5" cx="766" cy="591" fill="hsl(175, 75%, 70%)" opacity="0.29"></circle><circle r="7.5" cx="74" cy="176" fill="hsl(158, 75%, 70%)" opacity="0.36"></circle><circle r="7" cx="399" cy="132" fill="hsl(220, 75%, 70%)" opacity="0.87"></circle><circle r="14" cx="639" cy="391" fill="hsl(295, 75%, 70%)" opacity="0.80"></circle><circle r="6.5" cx="719" cy="90" fill="hsl(220, 75%, 70%)" opacity="0.59"></circle><circle r="17.5" cx="546" cy="766" fill="hsl(262, 75%, 70%)" opacity="0.45"></circle><circle r="7" cx="662" cy="97" fill="hsl(234, 75%, 70%)" opacity="0.82"></circle><circle r="6.5" cx="195" cy="650" fill="hsl(223, 75%, 70%)" opacity="0.47"></circle><circle r="11" cx="724" cy="558" fill="hsl(242, 75%, 70%)" opacity="0.87"></circle><circle r="12" cx="668" cy="782" fill="hsl(286, 75%, 70%)" opacity="0.43"></circle><circle r="11.5" cx="675" cy="487" fill="hsl(278, 75%, 70%)" opacity="0.71"></circle><circle r="14" cx="315" cy="601" fill="hsl(294, 75%, 70%)" opacity="0.30"></circle><circle r="8.5" cx="626" cy="597" fill="hsl(296, 75%, 70%)" opacity="0.72"></circle><circle r="9.5" cx="53" cy="753" fill="hsl(169, 75%, 70%)" opacity="0.95"></circle><circle r="10" cx="449" cy="691" fill="hsl(251, 75%, 70%)" opacity="0.71"></circle><circle r="12" cx="137" cy="190" fill="hsl(176, 75%, 70%)" opacity="0.38"></circle><circle r="7.5" cx="364" cy="719" fill="hsl(285, 75%, 70%)" opacity="0.91"></circle><circle r="11.5" cx="577" cy="235" fill="hsl(281, 75%, 70%)" opacity="0.49"></circle><circle r="18" cx="308" cy="411" fill="hsl(293, 75%, 70%)" opacity="0.89"></circle><circle r="9.5" cx="543" cy="449" fill="hsl(262, 75%, 70%)" opacity="0.17"></circle><circle r="5.5" cx="187" cy="630" fill="hsl(212, 75%, 70%)" opacity="0.39"></circle><circle r="12" cx="310" cy="213" fill="hsl(293, 75%, 70%)" opacity="0.18"></circle><circle r="7.5" cx="538" cy="74" fill="hsl(101, 75%, 70%)" opacity="0.25"></circle><circle r="12" cx="507" cy="647" fill="hsl(247, 75%, 70%)" opacity="0.79"></circle><circle r="13" cx="158" cy="294" fill="hsl(192, 75%, 70%)" opacity="0.46"></circle><circle r="14.5" cx="430" cy="261" fill="hsl(256, 75%, 70%)" opacity="0.60"></circle><circle r="11" cx="529" cy="277" fill="hsl(256, 75%, 70%)" opacity="0.62"></circle><circle r="12" cx="636" cy="554" fill="hsl(296, 75%, 70%)" opacity="0.13"></circle><circle r="10" cx="349" cy="540" fill="hsl(291, 75%, 70%)" opacity="0.45"></circle><circle r="13" cx="329" cy="254" fill="hsl(293, 75%, 70%)" opacity="0.34"></circle><circle r="7" cx="175" cy="610" fill="hsl(212, 75%, 70%)" opacity="0.18"></circle><circle r="12.5" cx="445" cy="738" fill="hsl(251, 75%, 70%)" opacity="0.32"></circle><circle r="14.5" cx="384" cy="656" fill="hsl(280, 75%, 70%)" opacity="0.32"></circle><circle r="11.5" cx="315" cy="292" fill="hsl(294, 75%, 70%)" opacity="0.92"></circle><circle r="12.5" cx="166" cy="142" fill="hsl(161, 75%, 70%)" opacity="0.42"></circle><circle r="7.5" cx="704" cy="73" fill="hsl(213, 75%, 70%)" opacity="0.15"></circle><circle r="10.5" cx="327" cy="505" fill="hsl(293, 75%, 70%)" opacity="0.97"></circle><circle r="17" cx="337" cy="36" fill="hsl(175, 75%, 70%)" opacity="0.39"></circle><circle r="14" cx="249" cy="428" fill="hsl(265, 75%, 70%)" opacity="0.53"></circle><circle r="9" cx="15" cy="171" fill="hsl(177, 75%, 70%)" opacity="0.24"></circle><circle r="14" cx="167" cy="699" fill="hsl(201, 75%, 70%)" opacity="0.13"></circle><circle r="7" cx="769" cy="622" fill="hsl(175, 75%, 70%)" opacity="0.46"></circle><circle r="6.5" cx="27" cy="130" fill="hsl(158, 75%, 70%)" opacity="0.13"></circle><circle r="13.5" cx="376" cy="350" fill="hsl(280, 75%, 70%)" opacity="0.92"></circle><circle r="13.5" cx="677" cy="166" fill="hsl(274, 75%, 70%)" opacity="0.78"></circle><circle r="8" cx="667" cy="560" fill="hsl(286, 75%, 70%)" opacity="0.69"></circle><circle r="10.5" cx="32" cy="211" fill="hsl(179, 75%, 70%)" opacity="0.92"></circle><circle r="10" cx="387" cy="751" fill="hsl(280, 75%, 70%)" opacity="0.17"></circle><circle r="14" cx="323" cy="725" fill="hsl(294, 75%, 70%)" opacity="0.39"></circle><circle r="6.5" cx="160" cy="18" fill="hsl(71, 75%, 70%)" opacity="0.32"></circle><circle r="17" cx="631" cy="503" fill="hsl(296, 75%, 70%)" opacity="0.66"></circle><circle r="9" cx="68" cy="626" fill="hsl(166, 75%, 70%)" opacity="0.84"></circle><circle r="10.5" cx="163" cy="71" fill="hsl(95, 75%, 70%)" opacity="0.99"></circle><circle r="8" cx="707" cy="507" fill="hsl(256, 75%, 70%)" opacity="0.83"></circle><circle r="7" cx="55" cy="18" fill="hsl(114, 75%, 70%)" opacity="0.86"></circle><circle r="7.5" cx="784" cy="685" fill="hsl(157, 75%, 70%)" opacity="0.74"></circle><circle r="10" cx="701" cy="605" fill="hsl(256, 75%, 70%)" opacity="0.92"></circle><circle r="9.5" cx="203" cy="24" fill="hsl(110, 75%, 70%)" opacity="0.76"></circle><circle r="5.5" cx="27" cy="103" fill="hsl(153, 75%, 70%)" opacity="0.25"></circle><circle r="12.5" cx="380" cy="521" fill="hsl(280, 75%, 70%)" opacity="0.19"></circle><circle r="11.5" cx="365" cy="430" fill="hsl(285, 75%, 70%)" opacity="0.73"></circle><circle r="11.5" cx="405" cy="569" fill="hsl(268, 75%, 70%)" opacity="0.75"></circle><circle r="7.5" cx="16" cy="18" fill="hsl(162, 75%, 70%)" opacity="0.45"></circle><circle r="11.5" cx="341" cy="674" fill="hsl(291, 75%, 70%)" opacity="0.49"></circle><circle r="18" cx="590" cy="537" fill="hsl(287, 75%, 70%)" opacity="0.60"></circle><circle r="12" cx="164" cy="342" fill="hsl(201, 75%, 70%)" opacity="0.98"></circle><circle r="11" cx="288" cy="513" fill="hsl(290, 75%, 70%)" opacity="0.23"></circle><circle r="9.5" cx="772" cy="475" fill="hsl(175, 75%, 70%)" opacity="0.89"></circle><circle r="8.5" cx="115" cy="320" fill="hsl(170, 75%, 70%)" opacity="0.58"></circle><circle r="8.5" cx="782" cy="512" fill="hsl(157, 75%, 70%)" opacity="0.84"></circle><circle r="6.5" cx="463" cy="129" fill="hsl(177, 75%, 70%)" opacity="0.78"></circle><circle r="10" cx="779" cy="262" fill="hsl(157, 75%, 70%)" opacity="0.99"></circle><circle r="17" cx="597" cy="458" fill="hsl(287, 75%, 70%)" opacity="0.52"></circle><circle r="10.5" cx="664" cy="354" fill="hsl(286, 75%, 70%)" opacity="0.77"></circle><circle r="10.5" cx="35" cy="254" fill="hsl(179, 75%, 70%)" opacity="0.49"></circle><circle r="8.5" cx="491" cy="144" fill="hsl(194, 75%, 70%)" opacity="0.44"></circle><circle r="14.5" cx="695" cy="416" fill="hsl(268, 75%, 70%)" opacity="0.18"></circle><circle r="9.5" cx="317" cy="544" fill="hsl(294, 75%, 70%)" opacity="0.21"></circle><circle r="9.5" cx="327" cy="776" fill="hsl(293, 75%, 70%)" opacity="0.95"></circle><circle r="10" cx="380" cy="86" fill="hsl(169, 75%, 70%)" opacity="0.76"></circle><circle r="9.5" cx="714" cy="675" fill="hsl(242, 75%, 70%)" opacity="0.40"></circle><circle r="10" cx="712" cy="379" fill="hsl(256, 75%, 70%)" opacity="0.80"></circle><circle r="14" cx="706" cy="205" fill="hsl(256, 75%, 70%)" opacity="0.30"></circle><circle r="10.5" cx="392" cy="260" fill="hsl(274, 75%, 70%)" opacity="0.72"></circle><circle r="13.5" cx="343" cy="631" fill="hsl(291, 75%, 70%)" opacity="0.84"></circle><circle r="15.5" cx="357" cy="580" fill="hsl(288, 75%, 70%)" opacity="0.81"></circle><circle r="12.5" cx="653" cy="256" fill="hsl(291, 75%, 70%)" opacity="0.87"></circle><circle r="9.5" cx="739" cy="343" fill="hsl(210, 75%, 70%)" opacity="0.64"></circle><circle r="11.5" cx="577" cy="288" fill="hsl(281, 75%, 70%)" opacity="0.34"></circle><circle r="5" cx="17" cy="711" fill="hsl(185, 75%, 70%)" opacity="0.82"></circle><circle r="14" cx="314" cy="363" fill="hsl(294, 75%, 70%)" opacity="0.64"></circle><circle r="10.5" cx="260" cy="86" fill="hsl(183, 75%, 70%)" opacity="0.82"></circle><circle r="6.5" cx="280" cy="114" fill="hsl(235, 75%, 70%)" opacity="0.63"></circle><circle r="12.5" cx="295" cy="772" fill="hsl(290, 75%, 70%)" opacity="0.96"></circle><circle r="10.5" cx="510" cy="464" fill="hsl(247, 75%, 70%)" opacity="0.86"></circle><circle r="5.5" cx="406" cy="109" fill="hsl(178, 75%, 70%)" opacity="0.77"></circle><circle r="5.5" cx="442" cy="112" fill="hsl(150, 75%, 70%)" opacity="0.38"></circle><circle r="6" cx="12" cy="368" fill="hsl(191, 75%, 70%)" opacity="0.85"></circle><circle r="13" cx="574" cy="416" fill="hsl(275, 75%, 70%)" opacity="0.38"></circle><circle r="13.5" cx="273" cy="595" fill="hsl(280, 75%, 70%)" opacity="0.67"></circle><circle r="14.5" cx="259" cy="384" fill="hsl(273, 75%, 70%)" opacity="0.56"></circle><circle r="5" cx="445" cy="39" fill="hsl(78, 75%, 70%)" opacity="0.34"></circle><circle r="8" cx="394" cy="48" fill="hsl(127, 75%, 70%)" opacity="0.55"></circle><circle r="10" cx="206" cy="109" fill="hsl(159, 75%, 70%)" opacity="0.66"></circle><circle r="8" cx="681" cy="115" fill="hsl(253, 75%, 70%)" opacity="0.41"></circle><circle r="11.5" cx="430" cy="658" fill="hsl(256, 75%, 70%)" opacity="0.53"></circle></svg>